<svg id="rodrigocarvalho_portal_linkedin" xmlns="http://www.w3.org/2000/svg" width="28" height="28" viewBox="0 0 28 28">
  <path id="Caminho_12259" data-name="Caminho 12259" d="M0,0H28V28H0ZM0,0H28V28H0Z" fill="none"/>
  <path id="Caminho_12273" data-name="Caminho 12273" d="M10.425,24.3h-3.8V12.889h3.8V24.3ZM10.08,10.775a2.164,2.164,0,0,1-1.563.568H8.5a2.091,2.091,0,0,1-1.521-.568,1.882,1.882,0,0,1-.584-1.406A1.851,1.851,0,0,1,7,7.954,2.19,2.19,0,0,1,8.55,7.395a2.1,2.1,0,0,1,1.53.559,1.944,1.944,0,0,1,.592,1.415A1.871,1.871,0,0,1,10.08,10.775ZM24.094,24.3h-3.8V18.2q0-2.582-1.908-2.582a1.861,1.861,0,0,0-1.217.4,2.532,2.532,0,0,0-.74.979,2.713,2.713,0,0,0-.115.921V24.3h-3.8q.049-10.33,0-11.416h3.8V14.5a3.816,3.816,0,0,1,3.405-1.875,4.118,4.118,0,0,1,3.175,1.3,5.463,5.463,0,0,1,1.2,3.832V24.3h0Z" transform="translate(-1.245 -2.612)" fill="#818997"/>
</svg>
