<svg id="rodrigocarvalho_portal_instagram" xmlns="http://www.w3.org/2000/svg" width="28" height="28" viewBox="0 0 28 28">
  <path id="Caminho_10495" data-name="Caminho 10495" d="M0,0H28V28H0Z" fill="none"/>
  <path id="Caminho_12244" data-name="Caminho 12244" d="M29.223,18c-3.048,0-3.43.013-4.627.068a8.235,8.235,0,0,0-2.724.521,5.74,5.74,0,0,0-3.283,3.282,8.2,8.2,0,0,0-.521,2.724c-.054,1.2-.068,1.58-.068,4.627s.014,3.429.068,4.626a8.247,8.247,0,0,0,.521,2.724,5.743,5.743,0,0,0,3.281,3.283,8.242,8.242,0,0,0,2.724.521c1.2.054,1.579.068,4.627.068s3.429-.013,4.626-.068a8.247,8.247,0,0,0,2.725-.521,5.75,5.75,0,0,0,3.282-3.283,8.318,8.318,0,0,0,.521-2.724c.054-1.2.068-1.579.068-4.626s-.014-3.43-.068-4.627a8.314,8.314,0,0,0-.521-2.724,5.741,5.741,0,0,0-3.282-3.282,8.261,8.261,0,0,0-2.726-.521c-1.2-.054-1.578-.068-4.627-.068Zm-1.007,2.022h1.007c3,0,3.351.011,4.535.065a6.213,6.213,0,0,1,2.083.386A3.718,3.718,0,0,1,37.97,22.6a6.2,6.2,0,0,1,.386,2.083c.054,1.183.065,1.538.065,4.533s-.012,3.35-.065,4.533a6.206,6.206,0,0,1-.386,2.083,3.721,3.721,0,0,1-2.129,2.128,6.19,6.19,0,0,1-2.083.387c-1.183.054-1.538.065-4.535.065s-3.352-.012-4.535-.065a6.225,6.225,0,0,1-2.084-.387,3.718,3.718,0,0,1-2.13-2.129,6.2,6.2,0,0,1-.386-2.083c-.054-1.183-.065-1.538-.065-4.535s.011-3.35.065-4.533a6.213,6.213,0,0,1,.386-2.084,3.719,3.719,0,0,1,2.13-2.13,6.2,6.2,0,0,1,2.084-.387c1.035-.047,1.436-.061,3.528-.063Zm7,1.863a1.346,1.346,0,1,0,1.347,1.346,1.346,1.346,0,0,0-1.347-1.346Zm-5.99,1.573a5.762,5.762,0,1,0,5.762,5.763,5.763,5.763,0,0,0-5.762-5.763Zm0,2.022a3.741,3.741,0,1,1-3.741,3.741A3.741,3.741,0,0,1,29.223,25.481Z" transform="translate(-15.222 -15.222)" fill="#818997"/>
</svg>
